<?xml version="1.0" standalone="no"?>
<!DOCTYPE svg PUBLIC "-//W3C//DTD SVG 20010904//EN"
 "http://www.w3.org/TR/2001/REC-SVG-20010904/DTD/svg10.dtd">
<svg version="1.0" xmlns="http://www.w3.org/2000/svg"
 width="1024.000000pt" height="1024.000000pt" viewBox="0 0 1024.000000 1024.000000"
 preserveAspectRatio="xMidYMid meet">

<g transform="translate(0.000000,1024.000000) scale(0.100000,-0.100000)"
fill="#0000ff" stroke="none">
<path d="M7600 7660 c0 -20 -7 -20 -2818 -20 -2551 0 -2824 -2 -2873 -16 -145
-43 -260 -138 -325 -270 -64 -129 -68 -83 124 -1499 l168 -1240 957 -3 957 -2
0 84 0 83 198 6 c155 4 213 9 273 25 262 70 399 244 399 507 0 339 -188 525
-530 525 -170 0 -308 -50 -404 -146 -85 -86 -146 -223 -146 -331 l0 -43 -190
0 -191 0 7 68 c48 486 493 808 1043 754 422 -42 690 -266 766 -641 26 -124 17
-322 -17 -413 -65 -175 -210 -332 -388 -423 l-35 -18 40 -18 c37 -16 100 -18
893 -18 l852 -1 0 529 0 529 -385 -128 -385 -128 0 176 0 177 543 190 c306
107 557 190 577 190 l35 0 3 -768 2 -767 807 2 807 3 168 1240 c92 682 168
1274 168 1316 1 240 -178 455 -414 498 -34 6 -193 11 -373 11 -306 0 -313 0
-313 -20z"/>
<path d="M1918 4563 c17 -21 694 -701 1505 -1510 l1475 -1473 -1372 0 c-1190
0 -1379 2 -1430 15 -184 48 -325 187 -373 370 l-13 50 6 -50 c22 -185 180
-360 369 -410 53 -13 394 -15 3041 -15 2946 0 2983 0 3046 20 129 40 248 142
308 264 62 125 63 63 -30 1459 -46 694 -86 1265 -89 1268 -3 4 -367 9 -808 12
l-803 5 0 -749 0 -749 -200 0 -200 0 0 750 0 750 -336 0 c-298 0 -335 2 -324
15 11 13 -44 15 -490 15 l-502 0 76 -50 c192 -129 292 -315 303 -565 20 -450
-219 -769 -663 -886 -80 -22 -109 -24 -289 -23 -183 0 -208 3 -297 26 -287 78
-491 242 -587 471 -35 86 -61 205 -61 282 l0 55 184 0 185 0 6 -47 c32 -260
155 -406 395 -470 89 -23 281 -23 370 1 251 68 381 250 382 536 2 291 -139
469 -422 535 -53 13 -135 19 -282 23 l-208 4 0 54 0 54 -951 0 -951 0 30 -37z"/>
</g>
</svg>
